<?xml version="1.0" standalone="no"?>
<!DOCTYPE svg PUBLIC "-//W3C//DTD SVG 20010904//EN"
 "http://www.w3.org/TR/2001/REC-SVG-20010904/DTD/svg10.dtd">
<svg version="1.0" xmlns="http://www.w3.org/2000/svg"
 width="329.000000pt" height="327.000000pt" viewBox="0 0 329.000000 327.000000"
 preserveAspectRatio="xMidYMid meet">

<g transform="translate(0.000000,327.000000) scale(0.100000,-0.100000)"
fill="#8A2BE2" stroke="none">
<path d="M1530 2690 l0 -140 155 0 156 0 -3 138 -3 137 -152 3 -153 3 0 -141z"/>
<path d="M764 2467 c-2 -7 -3 -69 -2 -138 l3 -124 155 0 155 0 0 135 0 135
-153 3 c-120 2 -154 0 -158 -11z"/>
<path d="M1150 2340 l0 -141 153 3 152 3 3 138 3 137 -156 0 -155 0 0 -140z"/>
<path d="M1530 2340 l0 -141 153 3 152 3 0 135 0 135 -152 3 -153 3 0 -141z"/>
<path d="M2514 2359 c-39 -63 -62 -122 -79 -207 -19 -94 -10 -172 30 -259 14
-31 24 -57 23 -59 -2 -1 -32 -13 -68 -26 l-65 -23 -1087 -5 -1088 -5 -26 -27
c-26 -26 -27 -30 -25 -125 3 -132 15 -217 52 -348 65 -231 158 -378 306 -487
170 -124 501 -189 851 -166 612 39 1067 336 1312 852 22 49 52 112 65 141 l23
53 59 7 c193 20 333 105 397 239 28 60 26 64 -48 99 -75 36 -161 49 -261 41
l-84 -7 -7 39 c-13 75 -80 185 -144 240 -41 35 -95 74 -104 74 -3 0 -17 -19
-32 -41z"/>
<path d="M390 1990 l0 -140 155 0 155 0 0 140 0 140 -155 0 -155 0 0 -140z"/>
<path d="M764 2117 c-2 -7 -3 -69 -2 -138 l3 -124 155 0 155 0 0 135 0 135
-153 3 c-120 2 -154 0 -158 -11z"/>
<path d="M1150 1990 l0 -140 155 0 155 0 0 140 0 140 -155 0 -155 0 0 -140z"/>
<path d="M1530 1990 l0 -140 155 0 156 0 -3 138 -3 137 -152 3 -153 3 0 -141z"/>
<path d="M1912 1993 l3 -138 153 -3 152 -3 0 141 0 140 -155 0 -156 0 3 -137z"/>
</g>
</svg>
