<?xml version="1.0" standalone="no"?>
<!DOCTYPE svg PUBLIC "-//W3C//DTD SVG 20010904//EN"
 "http://www.w3.org/TR/2001/REC-SVG-20010904/DTD/svg10.dtd">
<svg version="1.0" xmlns="http://www.w3.org/2000/svg"
 width="920.000000pt" height="789.000000pt" viewBox="0 0 920.000000 789.000000"
 preserveAspectRatio="xMidYMid meet">

<g transform="translate(0.000000,789.000000) scale(0.100000,-0.100000)"
fill="#8A2BE2" stroke="none">
<path d="M4670 7884 c-243 -30 -561 -139 -1625 -554 -115 -45 -257 -100 -315
-122 -117 -44 -416 -161 -1072 -417 -112 -44 -372 -145 -578 -226 -779 -304
-874 -344 -953 -395 -42 -28 -86 -65 -99 -83 l-23 -32 -3 -500 -3 -500 30 -46
c69 -109 258 -209 966 -507 105 -44 251 -106 325 -138 74 -31 198 -83 275
-114 77 -32 196 -81 265 -110 187 -78 467 -194 625 -260 866 -359 1341 -561
1500 -635 223 -104 382 -145 560 -145 213 0 372 48 730 222 360 174 533 251
1580 703 226 97 487 210 580 250 609 261 1069 465 1295 572 249 119 407 230
450 314 19 36 20 62 20 519 0 530 2 510 -64 568 -71 62 -138 93 -506 233 -118
44 -393 151 -610 236 -463 182 -1178 462 -1370 538 -1227 483 -1410 552 -1610
600 -103 25 -287 39 -370 29z m-394 -550 c93 -36 232 -91 309 -121 77 -30 149
-55 160 -55 11 0 150 43 310 95 159 53 291 95 292 93 2 -2 -7 -27 -21 -57 -60
-137 -138 -330 -134 -334 2 -2 82 -33 178 -68 424 -156 451 -167 404 -167 -29
0 -766 -79 -768 -82 -2 -3 -66 -160 -129 -315 -23 -57 -45 -103 -48 -103 -3 0
-65 98 -137 218 -72 119 -136 225 -144 235 -14 19 -31 21 -618 72 -162 14
-296 27 -297 29 -3 3 75 32 437 161 118 43 219 81 224 85 7 7 -134 284 -182
358 -8 12 -12 22 -10 22 3 0 81 -30 174 -66z m2984 -929 c621 -246 724 -288
733 -295 8 -7 -1356 -550 -1381 -550 -7 0 -121 43 -255 96 -133 53 -372 147
-532 210 -409 162 -467 186 -458 194 4 4 42 20 83 35 41 15 156 60 255 100 99
39 279 111 400 159 121 47 315 124 430 170 l210 83 60 -23 c33 -12 238 -93
455 -179z m-4130 50 c517 -81 810 -284 710 -491 -48 -98 -189 -191 -393 -259
-211 -70 -421 -98 -727 -99 -361 0 -652 51 -869 152 -382 177 -356 428 61 596
297 119 826 163 1218 101z m2284 -887 c-6 -11 -621 -915 -629 -926 -3 -3 -71
24 -355 143 -96 40 -265 110 -375 155 -110 46 -283 117 -385 160 -102 42 -228
94 -280 116 l-95 39 65 12 c36 6 218 34 405 62 331 50 852 130 1360 210 286
45 299 46 289 29z"/>
<path d="M9192 4529 c-4 -32 -89 -114 -177 -172 -193 -127 -468 -252 -2085
-947 -971 -418 -1345 -584 -1680 -748 -319 -156 -460 -200 -665 -209 -195 -8
-343 27 -596 143 -200 91 -761 329 -1534 649 -209 87 -281 116 -865 360 -168
70 -341 142 -385 160 -139 57 -635 271 -771 332 -228 104 -387 212 -420 288
-11 25 -13 -43 -11 -446 l2 -476 26 -38 c52 -72 192 -162 404 -258 127 -58
602 -262 767 -331 46 -19 182 -75 303 -126 121 -50 312 -130 425 -177 113 -47
275 -114 360 -150 85 -35 229 -95 320 -132 91 -38 264 -110 385 -161 121 -51
258 -108 305 -127 150 -61 500 -213 657 -284 266 -121 408 -159 591 -159 211
0 375 53 772 245 151 73 394 185 540 250 146 64 315 138 375 165 61 27 157 69
215 93 58 25 274 118 480 207 206 89 452 195 545 235 359 154 782 339 1027
449 451 202 657 335 689 446 6 22 9 198 7 485 -2 248 -4 443 -6 434z"/>
<path d="M9181 2992 c-42 -99 -284 -241 -791 -464 -355 -156 -1438 -625 -1715
-743 -97 -41 -334 -144 -655 -285 -282 -123 -572 -257 -780 -358 -329 -161
-482 -206 -695 -205 -188 0 -318 33 -544 138 -139 64 -653 284 -948 406 -244
101 -488 202 -673 279 -96 40 -254 106 -350 145 -96 40 -301 126 -455 190
-154 65 -316 132 -360 150 -158 65 -722 308 -813 351 -211 98 -350 194 -385
266 -16 31 -17 4 -17 -430 0 -526 -4 -500 83 -578 114 -102 345 -211 1312
-614 121 -51 288 -120 370 -155 83 -34 238 -99 345 -143 1138 -471 1648 -686
1885 -795 235 -107 366 -141 545 -141 223 0 367 44 750 229 256 123 417 197
715 327 304 133 853 371 1235 535 902 388 1285 557 1520 672 252 123 407 238
431 320 6 23 9 199 7 486 -3 394 -5 446 -17 417z"/>
</g>
</svg>
