<?xml version="1.0" encoding="UTF-8"?>
<svg width="65.149mm" height="10.482mm" version="1.1" viewBox="0 0 65.149 10.482" xmlns="http://www.w3.org/2000/svg" xmlns:cc="http://creativecommons.org/ns#" xmlns:dc="http://purl.org/dc/elements/1.1/" xmlns:rdf="http://www.w3.org/1999/02/22-rdf-syntax-ns#">
 <metadata>
  <rdf:RDF>
   <cc:Work rdf:about="">
    <dc:format>image/svg+xml</dc:format>
    <dc:type rdf:resource="http://purl.org/dc/dcmitype/StillImage"/>
    <dc:title/>
   </cc:Work>
  </rdf:RDF>
 </metadata>
 <text x="-71.237465" y="-60.859303" fill="#000000" font-family="sans-serif" font-size="10.583px" style="line-height:1.35;shape-inside:url(#rect12);white-space:pre" xml:space="preserve"/>
 <path d="m19.004 6.5658c1.9402 3.6095 1.9402 3.6095-1.9424 3.6083-3.8825-0.0014-3.8825-0.0014-1.9402-3.6095 1.9424-3.6083 1.9424-3.6083 3.8825 0.00138z" fill="#b3b3b3" fill-rule="evenodd" stroke-width=".076588"/>
 <text x="-71.237465" y="-60.859303" fill="#000000" font-family="sans-serif" font-size="10.583px" style="line-height:1.25;shape-inside:url(#rect1206);white-space:pre" xml:space="preserve"/>
 <g fill="#8a2be2">
  <path d="m2.9061 3.1533v-1.4973h-0.53572l-2.1703 2.5412v0.38462h0.93407v3.3242c0 1.3874 0.79671 2.239 2.3901 2.239 0.48077 0 1.044-0.1099 1.3187-0.32967v-1.4286c-0.24725 0.12363-0.56319 0.19231-0.79671 0.19231-0.76924 0-1.1401-0.3022-1.1401-1.0577v-2.9396h1.8819v-1.4286z" style="white-space:pre"/>
  <path d="m5.877 10.063h1.772v-6.9094h-1.772zm-0.01374-8.022v-1.8407h1.7995-1.7995z" style="white-space:pre"/>
  <path d="m11.169 3.1533v-1.4973h-0.53572l-2.1703 2.5412v0.38462h0.93407v3.3242c0 1.3874 0.79671 2.239 2.3901 2.239 0.48077 0 1.044-0.1099 1.3187-0.32967v-1.4286c-0.24726 0.12363-0.56319 0.19231-0.79671 0.19231-0.76924 0-1.1401-0.3022-1.1401-1.0577v-2.9396h1.8819v-1.4286z" style="white-space:pre"/>
  <path d="m25.228 5.9693v4.0934h1.772v-4.5467c0-1.4973-0.86539-2.4863-2.3077-2.4863-0.96154 0-1.6896 0.46704-2.0605 1.25l-0.01373-1.1264h-1.717v6.9094h1.772v-3.8874c0-1.0165 0.49451-1.5659 1.3462-1.5659 0.82418 0 1.2088 0.54945 1.2088 1.3599z" style="white-space:pre"/>
  <path d="m35.281 2.7412 0.4533-1.7033c-0.38462-0.27473-1.1951-0.54945-2.3077-0.54945-2.1154 0-5.4533 0.98902-5.4533 4.8627 0 3.7088 3.1044 4.8627 5.3434 4.8627 1.0165 0 1.9368-0.23352 2.3077-0.49451v-1.7445c-0.49451 0.31594-1.305 0.54945-2.0605 0.54945-1.7857 0-3.6951-0.92034-3.6951-3.283 0-2.2665 1.9368-3.0083 3.3791-3.0083 0.93407 0 1.5797 0.23352 2.033 0.50825z" style="white-space:pre"/>
  <path d="m40 4.472c1.2637 0 1.9231 0.98902 1.9231 2.1291s-0.65934 2.1429-1.9231 2.1429c-1.2637 0-1.9231-1.0028-1.9231-2.1429s0.65935-2.1291 1.9231-2.1291zm0-1.5385c-2.3352 0-3.7088 1.6072-3.7088 3.6676 0 2.0742 1.3736 3.6813 3.7088 3.6813s3.7088-1.6072 3.7088-3.6813c0-2.0605-1.3736-3.6676-3.7088-3.6676z" style="white-space:pre"/>
  <path d="m48.114 4.527c1.2088 0 1.8407 0.93407 1.8407 2.0742s-0.63187 2.0879-1.8407 2.0879-1.8544-0.94781-1.8544-2.0879 0.64561-2.0742 1.8544-2.0742zm1.8819 4.2445 0.01373 1.2912h1.717v-9.8627h-1.772v4.1346c-0.39835-0.79671-1.2225-1.3324-2.294-1.3324-1.9643 0-3.1868 1.5659-3.1868 3.5989 0 2.0467 1.2225 3.6127 3.1594 3.6127 1.1401 0 1.978-0.59066 2.3627-1.4423z" style="white-space:pre"/>
  <path d="m59.095 9.733v-1.5522c-0.4533 0.32967-1.2363 0.56319-2.0055 0.56319-1.4286 0-2.2116-0.53572-2.4313-1.511h4.6978c0.04121-0.21978 0.05494-0.56319 0.05494-0.81045 0-1.8544-1.1401-3.4478-3.0907-3.4478-2.239 0-3.5028 1.6758-3.5028 3.6127 0 2.1154 1.3599 3.6539 4.0797 3.6539 0.74176 0 1.7033-0.17857 2.1978-0.50824zm-1.4148-3.7363h-3.0495c0.1511-0.94781 0.72803-1.5385 1.6209-1.5385 0.79671 0 1.3187 0.6044 1.4286 1.5385z" style="white-space:pre"/>
  <path d="m64.619 5.1314 0.32967-1.772c-0.19231-0.20604-0.50824-0.31594-0.82418-0.31594-0.98902 0-1.5522 0.70055-1.8544 1.6072l-0.01373-1.4973h-1.6758v6.9094h1.772v-3.4204c0-1.2912 0.57693-1.7308 1.4148-1.7308 0.3022 0 0.61814 0.082418 0.85166 0.21978z" style="white-space:pre"/>
 </g>
 <path d="m7.4434 1.132c0.54761 1.0188 0.54761 1.0188-0.54823 1.0184-1.0958-3.911e-4 -1.0958-3.911e-4 -0.54761-1.0188 0.54823-1.0184 0.54823-1.0184 1.0958 3.912e-4z" fill="#b3b3b3" fill-rule="evenodd" stroke-width=".021616"/>
</svg>
