<?xml version="1.0" standalone="no"?>
<!DOCTYPE svg PUBLIC "-//W3C//DTD SVG 20010904//EN"
 "http://www.w3.org/TR/2001/REC-SVG-20010904/DTD/svg10.dtd">
<svg version="1.0" xmlns="http://www.w3.org/2000/svg"
 width="501.000000pt" height="497.000000pt" viewBox="0 0 501.000000 497.000000"
 preserveAspectRatio="xMidYMid meet">

<g transform="translate(0.000000,497.000000) scale(0.100000,-0.100000)"
fill="#8A2BE2" stroke="none">
<path d="M2510 4959 c-740 -75 -1385 -579 -1686 -1317 l-44 -107 -72 -30
c-111 -47 -217 -106 -253 -139 -28 -27 -34 -42 -46 -116 -17 -105 -16 -308 0
-415 17 -107 56 -236 92 -311 25 -50 38 -64 76 -83 l45 -22 -78 -82 c-95 -99
-174 -191 -238 -275 -38 -50 -250 -371 -291 -442 -5 -8 27 16 71 55 43 38 111
97 149 131 120 105 321 248 507 363 58 35 68 38 68 22 0 -13 -26 -34 -82 -67
-115 -69 -123 -83 -122 -202 3 -154 69 -443 129 -562 29 -58 51 -76 98 -83 37
-6 167 5 218 18 24 6 27 1 58 -82 46 -121 113 -257 177 -360 30 -47 53 -88 50
-90 -2 -2 -116 47 -253 110 -276 127 -300 136 -288 116 46 -78 292 -441 363
-535 190 -253 340 -349 584 -376 89 -9 127 -8 273 9 l170 20 70 -24 c157 -53
255 -67 475 -67 175 0 220 3 306 22 143 31 290 84 424 152 105 54 137 65 365
120 414 102 427 112 613 470 67 129 146 281 177 338 30 56 53 102 51 102 -8 0
-279 -121 -344 -154 -39 -20 -74 -36 -76 -36 -3 0 9 30 26 67 17 38 45 108 62
157 l31 88 125 -1 c147 -1 164 5 197 71 49 97 123 456 123 592 0 106 -32 150
-160 217 -38 20 -42 24 -23 27 22 3 26 12 49 105 3 16 14 31 23 34 9 3 52 22
96 43 l80 37 32 69 c72 156 110 376 100 579 -8 149 -26 228 -58 254 -40 33
-179 107 -255 136 l-72 28 -31 83 c-73 192 -211 426 -358 610 -418 519 -1075
798 -1723 733z m556 -123 c548 -116 1030 -475 1312 -975 55 -98 132 -261 132
-280 0 -5 -46 4 -103 19 -188 50 -204 46 -52 -15 189 -76 385 -173 471 -233
l71 -50 6 -63 c17 -154 2 -336 -39 -497 -34 -135 -65 -199 -106 -216 -18 -8
-34 -13 -36 -11 -2 2 8 45 22 96 18 66 22 95 14 100 -6 4 -73 20 -149 35 -77
16 -139 31 -139 35 0 3 27 14 60 24 56 17 166 72 158 80 -2 2 -32 -4 -68 -13
-99 -25 -499 -22 -785 7 -914 90 -1359 92 -2180 11 -446 -44 -748 -50 -902
-17 -34 7 -60 10 -57 5 10 -16 122 -67 183 -84 34 -10 60 -19 58 -20 -1 -1
-54 -14 -117 -28 -63 -14 -125 -28 -136 -31 l-22 -5 25 -100 c14 -55 23 -103
21 -106 -3 -3 -26 5 -51 17 -38 19 -50 32 -71 79 -74 165 -114 504 -80 680 10
52 262 193 554 309 69 28 118 50 110 50 -16 1 -233 -53 -264 -65 -16 -6 -17
-4 -11 17 4 13 27 65 50 116 258 553 746 966 1311 1109 185 46 251 53 484 49
173 -3 224 -7 326 -29z m-221 -2422 c-28 -19 -91 -60 -140 -90 -75 -44 -106
-57 -178 -70 -48 -9 -96 -24 -106 -33 -11 -10 -46 -110 -91 -261 -41 -135 -78
-250 -84 -256 -8 -9 -734 -175 -814 -187 -7 -1 -70 38 -141 87 l-128 90 -38
304 c-20 167 -35 305 -33 307 10 10 556 90 563 83 2 -2 -13 -26 -34 -53 -20
-28 -68 -95 -107 -150 -58 -85 -64 -97 -39 -81 17 11 86 57 155 102 194 128
361 215 423 221 108 10 381 20 607 21 l235 2 -50 -36z m935 -25 c191 -22 538
-73 546 -82 5 -5 -64 -506 -71 -518 -2 -3 -62 -46 -132 -95 l-127 -88 -409 46
c-240 27 -412 50 -416 57 -4 6 -40 120 -80 253 -48 160 -80 249 -92 260 -11 9
-53 22 -94 29 -41 7 -73 15 -71 17 3 2 58 14 123 27 141 28 290 65 393 99 87
29 124 29 430 -5z m883 -289 l47 -30 0 -77 c0 -131 -53 -393 -100 -500 l-19
-43 -64 0 c-36 0 -79 3 -96 6 -30 6 -31 8 -25 48 4 31 14 48 42 71 88 74 78
50 112 290 34 249 37 265 48 265 5 0 29 -13 55 -30z m-3833 -52 c1 -33 59
-485 65 -498 3 -8 35 -35 71 -60 58 -41 87 -80 70 -97 -12 -13 -177 -27 -194
-17 -20 12 -82 191 -112 324 -14 58 -23 134 -24 195 l-1 100 49 32 c51 35 76
41 76 21z m1950 -51 c0 -8 160 -528 164 -536 9 -15 33 -18 590 -81 l540 -62
118 82 c65 44 118 76 118 71 0 -38 -86 -270 -145 -393 l-38 -78 -49 0 c-76 0
-440 39 -452 49 -6 5 -89 70 -184 145 -200 157 -190 154 -356 111 -115 -30
-113 -30 -94 -7 21 23 50 81 46 92 -2 4 -32 -10 -68 -31 -73 -45 -161 -75
-247 -84 -71 -8 -159 11 -248 55 -33 16 -61 28 -62 26 -2 -2 7 -23 20 -47 l24
-44 -119 3 c-113 3 -120 2 -171 -25 -64 -34 -196 -165 -257 -255 l-45 -66
-105 -33 c-58 -18 -154 -47 -213 -65 l-108 -32 -58 87 c-32 49 -81 134 -110
189 -49 95 -126 281 -119 287 2 2 46 -28 98 -66 52 -37 103 -68 114 -69 36 0
1101 241 1112 253 6 7 47 128 89 270 l78 257 69 0 c37 0 68 -1 68 -3z m118
-1598 c-12 -4 -40 -7 -61 -8 -35 -1 -38 1 -31 22 3 12 13 35 22 52 l15 29 39
-44 c40 -44 40 -45 16 -51z m122 -88 c59 -47 127 -81 195 -97 l50 -12 -37 -16
c-59 -25 -218 -64 -340 -82 -120 -18 -317 -15 -408 6 -100 23 -99 22 -34 35
97 21 207 77 272 139 l58 55 74 4 c41 1 85 4 98 5 13 1 42 -14 72 -37z"/>
<path d="M2052 4513 c-95 -207 -152 -474 -152 -715 0 -60 -2 -108 -5 -108 -3
0 -16 7 -28 15 -21 14 -41 10 -250 -50 -124 -36 -229 -65 -233 -65 -4 0 -4 60
-1 133 10 204 53 386 133 567 41 92 17 64 -37 -43 -79 -155 -134 -367 -147
-565 l-7 -107 -43 -14 c-28 -8 -46 -21 -52 -35 -15 -41 -33 -289 -27 -381 l6
-92 -52 -16 c-62 -20 -144 -60 -107 -52 438 97 810 125 1651 125 792 0 1289
-35 1600 -114 103 -26 104 -20 4 18 -38 15 -78 30 -89 34 -17 7 -18 20 -17
140 2 142 -15 329 -31 349 -6 7 -28 18 -49 23 -28 8 -39 16 -39 29 0 11 -5 65
-10 122 -22 216 -93 458 -176 595 -53 89 -61 89 -16 -1 80 -161 132 -377 147
-607 3 -60 3 -108 -2 -108 -5 0 -111 29 -237 65 -215 62 -230 65 -252 50 l-24
-15 0 57 c0 171 -41 432 -92 593 -28 88 -101 260 -111 260 -2 0 7 -37 20 -82
62 -215 97 -497 92 -747 l-4 -171 -36 -29 c-32 -27 -37 -37 -42 -91 -8 -76
-32 -169 -59 -233 -16 -36 -25 -46 -37 -42 -26 11 -794 17 -950 8 l-143 -8
-20 38 c-24 48 -53 162 -63 244 -6 55 -10 64 -40 84 -30 21 -33 28 -39 88 -21
226 15 578 88 846 13 50 23 91 22 93 -2 1 -21 -37 -44 -85z m-252 -958 c0 -95
17 -254 35 -323 15 -61 26 -54 -120 -72 -49 -7 -157 -26 -240 -43 -220 -44
-199 -52 -203 73 -3 94 12 287 23 298 6 7 468 140 488 141 15 1 17 -9 17 -74z
m2063 7 c181 -51 242 -73 250 -87 6 -11 13 -100 15 -209 l5 -189 -29 5 c-16 3
-96 19 -179 36 -82 17 -195 36 -250 43 -55 7 -103 15 -108 19 -4 3 0 40 9 81
8 41 18 140 21 222 4 97 10 147 17 147 6 0 118 -31 249 -68z m-1915 -20 c40
-34 52 -51 52 -73 0 -41 26 -159 48 -217 l19 -50 -30 -6 c-16 -3 -51 -6 -77
-6 l-47 0 -18 88 c-9 48 -20 141 -23 206 -6 135 -11 131 76 58z m1579 -74 c-2
-73 -12 -167 -22 -208 l-17 -76 -69 7 c-38 3 -72 9 -75 12 -3 3 4 31 15 62 12
31 28 98 37 148 14 82 19 95 47 117 17 14 43 35 57 47 14 12 27 23 29 23 2 0
1 -60 -2 -132z"/>
<path d="M2180 4280 l0 -210 150 0 150 0 0 60 0 60 35 0 35 0 0 -285 0 -285
-50 0 -50 0 0 -160 0 -160 265 0 265 0 0 160 0 160 -55 0 -55 0 0 285 0 285
35 0 35 0 0 -60 0 -60 150 0 150 0 0 210 0 210 -530 0 -530 0 0 -210z"/>
<path d="M1860 2239 c-38 -15 -89 -68 -118 -124 -25 -46 -27 -60 -27 -162 l0
-111 -36 -16 c-36 -16 -76 -52 -67 -61 2 -3 20 0 39 5 18 6 101 10 184 11 232
0 260 19 260 167 0 206 -109 341 -235 291z m117 -125 c15 -24 15 -29 2 -53
-20 -36 -71 -41 -93 -9 -20 29 -20 47 1 70 24 27 69 23 90 -8z"/>
<path d="M3410 2268 c-92 -61 -139 -298 -79 -398 38 -61 121 -73 311 -45 56 9
115 13 130 10 15 -4 28 -2 28 3 0 17 -38 43 -73 49 l-35 5 5 52 c11 102 -47
251 -120 310 -51 41 -119 47 -167 14z m98 -101 c17 -13 15 -62 -4 -81 -47 -48
-123 23 -81 76 21 28 53 29 85 5z"/>
</g>
</svg>
